<svg width="20" height="20" viewBox="0 0 20 20" fill="none" xmlns="http://www.w3.org/2000/svg">
<path d="M8.3645 17.8327L10.2941 14.4905C10.1969 14.4968 10.0988 14.5 10 14.5C8.3037 14.5 6.82656 13.5614 6.0597 12.1752L2.79459 6.51986C2.28545 7.57206 2 8.7527 2 10C2 13.8578 4.73064 17.0778 8.3645 17.8327ZM10.5897 17.9786C14.7326 17.6767 18 14.2199 18 10C18 9.1269 17.8601 8.2865 17.6016 7.5H13.7422C14.2209 8.215 14.5 9.0749 14.5 10C14.5 10.8477 14.2656 11.6406 13.8581 12.3175L10.5897 17.9786ZM12.1434 11.2875L12.1651 11.25C12.3782 10.8824 12.5 10.4554 12.5 10C12.5 8.6193 11.3807 7.5 10 7.5C8.6193 7.5 7.5 8.6193 7.5 10C7.5 10.4383 7.6128 10.8503 7.81094 11.2084L7.83494 11.25C8.2669 11.9973 9.0747 12.5 10 12.5C10.9098 12.5 11.7061 12.014 12.1434 11.2875ZM4.03522 4.66871L5.9635 8.0086C6.69821 6.52222 8.2297 5.5 10 5.5H16.6153C15.1753 3.38723 12.7497 2 10 2C7.62968 2 5.50014 3.03086 4.03522 4.66871ZM10 20C4.47715 20 0 15.5228 0 10C0 4.47715 4.47715 0 10 0C15.5228 0 20 4.47715 20 10C20 15.5228 15.5228 20 10 20Z" fill="#91FF00"/>
</svg>
