<svg width="20" height="20" viewBox="0 0 20 20" fill="none" xmlns="http://www.w3.org/2000/svg">
<path d="M10 0C15.55 0 20 4.5 20 10C20 15.5 15.5 20 10 20C4.5 20 0 15.5 0 10C0 4.5 4.5 0 10 0ZM10 2C5.60457 2 2 5.60457 2 10C2 14.3954 5.60457 18 10 18C14.3954 18 18 14.3954 18 10C18 5.58572 14.4266 2 10 2ZM13.75 14.65C11.4 13.2 8.45002 12.8992 4.94916 13.6992C4.60083 13.8008 4.3 13.55 4.2 13.25C4.1 12.8992 4.35 12.6 4.65 12.5C8.45002 11.6492 11.75 12 14.35 13.6C14.7 13.75 14.7491 14.1492 14.6008 14.45C14.4008 14.7492 14.0508 14.85 13.75 14.65ZM14.7491 11.95C12.05 10.3 7.95 9.8 4.8 10.8C4.40083 10.9 3.95 10.7 3.85 10.3C3.75 9.9 3.95 9.4492 4.35 9.3492C8.00002 8.25 12.5 8.8008 15.6 10.7C15.9008 10.8508 16.05 11.35 15.8008 11.7C15.55 12.05 15.1 12.2 14.7491 11.95ZM4.3 7.75083C3.8 7.9 3.3 7.6 3.15 7.15C3 6.64917 3.3 6.15 3.75 5.99917C7.3 4.94917 13.15 5.14917 16.8508 7.35C17.3 7.6 17.45 8.2 17.2 8.65C16.9508 9.0008 16.35 9.1492 15.9008 8.9C12.7 7 7.35 6.8 4.3 7.75083Z" fill="#91FF00"/>
</svg>
